<?xml version="1.0" encoding="utf-8"?>
<!-- Generator: Adobe Illustrator 24.1.0, SVG Export Plug-In . SVG Version: 6.00 Build 0)  -->
<svg version="1.1" id="Ebene_3" xmlns="http://www.w3.org/2000/svg" xmlns:xlink="http://www.w3.org/1999/xlink" x="0px" y="0px"
	 viewBox="0 0 8192 4608" style="enable-background:new 0 0 8192 4608;" xml:space="preserve">
<style type="text/css">
	.st0{fill:#001911;}
	.st1{fill:#FFFFFF;}
	.st2{fill:#00FFBB;}
</style>
<rect id="bg" class="st0" width="8192" height="4608"/>
<path class="st1" d="M1678.1,2064.7h257.3v58.1h-194.6v119.6h179.5v58.1H1742v182.9h-63.9V2064.7z"/>
<path class="st1" d="M2002.1,2164h60.4v55.2h5.2c4.3-19.4,14.2-34.4,29.9-45c15.7-10.6,35.3-16,58.9-16c34.1,0,60.8,10.6,80.1,31.7
	c19.4,21.1,29,50.4,29,88v20.9h-65.6v-14.5c0-22.5-6-40-18-52.6c-12-12.6-28.5-18.9-49.4-18.9c-20.5,0-36.8,6.4-48.8,19.2
	c-12,12.8-18,30.2-18,52.3v199.2h-63.9V2164z"/>
<path class="st1" d="M2459.9,2489.3c-20.5,0-39-2.9-55.5-8.7c-16.5-5.8-30.5-14.1-42.1-25c-11.6-10.8-20.6-23.8-27-38.9
	c-6.4-15.1-9.6-32.1-9.6-51.1v-83.6c0-19,3.2-36.1,9.6-51.4c6.4-15.3,15.4-28.3,27-38.9c11.6-10.6,25.6-18.9,42.1-24.7
	c16.5-5.8,34.9-8.7,55.5-8.7c20.5,0,39,2.9,55.5,8.7c16.5,5.8,30.5,14,42.1,24.7c11.6,10.7,20.5,23.6,26.7,38.9
	c6.2,15.3,9.3,32.4,9.3,51.4v58.7h-203.8v22.6c0,22.8,6.2,40.7,18.6,53.4c12.4,12.8,29.6,19.2,51.7,19.2c16.3,0,30.3-2.5,42.1-7.5
	c11.8-5,20.4-12.4,25.8-22.1h63.3c-3.5,12.8-9.1,24.2-16.8,34.3c-7.7,10.1-17.3,18.8-28.7,26.1c-11.4,7.4-24.4,13-38.9,16.8
	S2476.5,2489.3,2459.9,2489.3z M2530.7,2294.1v-12.2c0-22.1-6.2-39.4-18.6-52c-12.4-12.6-29.8-18.9-52.3-18.9
	c-22.1,0-39.3,6.3-51.7,18.9c-12.4,12.6-18.6,29.9-18.6,52v12.2H2530.7z"/>
<path class="st1" d="M2662.3,2483.5v-58.1h115.6v-203.8h-101.1V2164h162.6v261.3h94.1v58.1H2662.3z M2794.2,2039.2h13.4
	c12,0,21.7,3.4,29,10.2c7.4,6.8,11,15.8,11,27c0,11.2-3.7,20.1-11,26.7c-7.4,6.6-17,9.9-29,9.9h-13.4c-12,0-21.6-3.3-28.7-9.9
	c-7.2-6.6-10.7-15.5-10.7-26.7c0-11.2,3.6-20.2,10.7-27C2772.6,2042.6,2782.2,2039.2,2794.2,2039.2z"/>
<path class="st1" d="M2996,2059.5h63.9V2164c0,5.4-0.2,11.3-0.6,17.7c-0.4,6.4-0.9,12.4-1.5,18c-0.6,5.6-1.1,12.1-1.5,19.5h5.2
	c4.3-19.4,13.8-34.4,28.7-45c14.9-10.6,33.8-16,56.6-16c15.9,0,30.3,2.7,43.3,8.1c13,5.4,24,13.2,33.1,23.2
	c9.1,10.1,16.2,22.2,21.2,36.3c5,14.1,7.5,29.9,7.5,47.3v210.2h-63.3v-201.5c0-21.7-5.7-38.6-17.1-50.8
	c-11.4-12.2-27-18.3-46.8-18.3c-20.1,0-36,6.4-47.6,19.2s-17.4,30.2-17.4,52.3v199.2H2996V2059.5z"/>
<path class="st1" d="M3459.2,2489.3c-20.5,0-39-2.9-55.5-8.7c-16.5-5.8-30.5-14.1-42.1-25c-11.6-10.8-20.6-23.8-27-38.9
	c-6.4-15.1-9.6-32.1-9.6-51.1v-83.6c0-19,3.2-36.1,9.6-51.4c6.4-15.3,15.4-28.3,27-38.9c11.6-10.6,25.6-18.9,42.1-24.7
	c16.5-5.8,34.9-8.7,55.5-8.7c20.5,0,39,2.9,55.5,8.7c16.5,5.8,30.5,14,42.1,24.7c11.6,10.7,20.5,23.6,26.7,38.9
	c6.2,15.3,9.3,32.4,9.3,51.4v58.7H3389v22.6c0,22.8,6.2,40.7,18.6,53.4c12.4,12.8,29.6,19.2,51.7,19.2c16.3,0,30.3-2.5,42.1-7.5
	c11.8-5,20.4-12.4,25.8-22.1h63.3c-3.5,12.8-9.1,24.2-16.8,34.3c-7.7,10.1-17.3,18.8-28.7,26.1c-11.4,7.4-24.4,13-38.9,16.8
	S3475.9,2489.3,3459.2,2489.3z M3530.1,2294.1v-12.2c0-22.1-6.2-39.4-18.6-52c-12.4-12.6-29.8-18.9-52.3-18.9
	c-22.1,0-39.3,6.3-51.7,18.9c-12.4,12.6-18.6,29.9-18.6,52v12.2H3530.1z"/>
<path class="st1" d="M3661.7,2483.5v-58.1h115.6v-203.8h-101.1V2164h162.6v261.3h94.1v58.1H3661.7z M3793.5,2039.2h13.4
	c12,0,21.7,3.4,29,10.2c7.4,6.8,11,15.8,11,27c0,11.2-3.7,20.1-11,26.7c-7.4,6.6-17,9.9-29,9.9h-13.4c-12,0-21.6-3.3-28.7-9.9
	c-7.2-6.6-10.7-15.5-10.7-26.7c0-11.2,3.6-20.2,10.7-27C3771.9,2042.6,3781.5,2039.2,3793.5,2039.2z"/>
<path class="st1" d="M3937.9,2164h90v-98.7h63.9v98.7h122.5v57.5h-122.5v170.2c0,10.5,3.1,18.7,9.3,24.7c6.2,6,14.9,9,26.1,9h81.3
	v58.1h-84.2c-29.8,0-53.3-8.3-70.6-25c-17.2-16.6-25.8-38.9-25.8-66.8v-170.2h-90V2164z"/>
<path class="st1" d="M4401.2,2489.3c-35.6,0-64.6-7.6-86.8-22.9c-22.3-15.3-34.9-36.3-38-63h66.2c2.3,10.5,8.8,18.8,19.5,25
	c10.6,6.2,23.7,9.3,39.2,9.3h20.9c19,0,33.8-3.9,44.4-11.6c10.6-7.7,16-18.4,16-31.9c0-23.2-17-37.2-51.1-41.8l-46.5-6.4
	c-34.5-4.3-59.9-14.1-76.4-29.6c-16.5-15.5-24.7-37.2-24.7-65c0-29.4,10.4-52.3,31.1-68.5c20.7-16.3,50.2-24.4,88.6-24.4h20.3
	c33.7,0,61.1,7.5,82.2,22.4c21.1,14.9,33.6,35.1,37.5,60.7h-65.6c-2.3-9.7-8.3-17.3-18-22.9c-9.7-5.6-21.7-8.4-36-8.4h-20.3
	c-18.2,0-32.1,3.4-41.8,10.2c-9.7,6.8-14.5,16.9-14.5,30.5c0,11.2,3.6,19.9,10.7,26.1c7.2,6.2,18.7,10.3,34.6,12.2l47.6,6.4
	c36.4,5,63.1,15.3,80.1,30.8c17,15.5,25.6,37.6,25.6,66.2c0,31-10.7,54.9-31.9,71.7c-21.3,16.8-51.9,25.3-91.8,25.3H4401.2z"/>
<path class="st1" d="M4609.6,2281.4c0-18.6,2.5-35.5,7.5-50.8c5-15.3,12.4-28.3,22.1-38.9c9.7-10.6,21.3-18.9,34.8-24.7
	c13.5-5.8,28.6-8.7,45.3-8.7c23.6,0,43.4,5.6,59.2,16.8c15.9,11.2,26.1,26.9,30.8,47h4.1V2164h60.4v298.5
	c0,36.4-11.5,64.9-34.6,85.7c-23,20.7-54.7,31.1-95,31.1h-82.5v-54.6h82.5c20.5,0,36.7-5.5,48.5-16.6c11.8-11,17.7-26.2,17.7-45.6
	v-9.3l2.3-61h-3.5c-5,20.1-15.5,35.8-31.4,47c-15.9,11.2-35.6,16.8-59.2,16.8c-16.7,0-31.7-2.9-45-8.7s-24.8-14-34.3-24.7
	c-9.5-10.6-16.8-23.6-22.1-38.9c-5.2-15.3-7.8-32.2-7.8-50.8V2281.4z M4674.1,2332.5c0,21.3,6.1,38,18.3,50.2
	c12.2,12.2,28.7,18.3,49.7,18.3c21.3,0,38-6.2,50.2-18.6c12.2-12.4,18.3-29,18.3-49.9v-50.5c0-21.3-6.1-38-18.3-50.2
	c-12.2-12.2-28.9-18.3-50.2-18.3c-20.9,0-37.5,6.1-49.7,18.3c-12.2,12.2-18.3,28.9-18.3,50.2V2332.5z"/>
<path class="st1" d="M4960,2164h60.4v55.2h5.2c4.3-19.4,14.2-34.4,29.9-45c15.7-10.6,35.3-16,58.9-16c34.1,0,60.8,10.6,80.1,31.7
	c19.4,21.1,29,50.4,29,88v20.9h-65.6v-14.5c0-22.5-6-40-18-52.6c-12-12.6-28.5-18.9-49.4-18.9c-20.5,0-36.8,6.4-48.8,19.2
	c-12,12.8-18,30.2-18,52.3v199.2H4960V2164z"/>
<path class="st1" d="M5273.6,2392.3c0-31,10.7-55.5,32.2-73.5s50.6-27,87.4-27h86.5v-27.3c0-17-5.9-30.4-17.7-40.1
	c-11.8-9.7-28.6-14.5-50.2-14.5c-16.7,0-30.8,3.1-42.4,9.3c-11.6,6.2-19.2,14.7-22.6,25.6h-63.3c5-26.7,19.2-47.8,42.4-63.3
	c23.2-15.5,52.1-23.2,86.5-23.2c40.7,0,72.7,9.3,96.1,27.9c23.4,18.6,35.1,44.1,35.1,76.7v220.7h-59.2v-62.1h-4.6
	c-4.3,20.9-15.7,37.5-34.3,49.7c-18.6,12.2-41,18.3-67.4,18.3c-32.1,0-57.6-8.7-76.4-26.1
	C5282.9,2445.7,5273.6,2422.1,5273.6,2392.3z M5397.3,2438.2c11.6,0,22.4-1.5,32.5-4.6c10.1-3.1,18.8-7.5,26.1-13.1
	c7.4-5.6,13.2-12.2,17.4-19.7c4.3-7.5,6.4-15.8,6.4-24.7v-40.1h-86c-17.4,0-31.2,4.5-41.2,13.4c-10.1,8.9-15.1,21.5-15.1,37.7
	c0,16.3,5.2,28.8,15.7,37.7C5363.6,2433.7,5378.3,2438.2,5397.3,2438.2z"/>
<path class="st1" d="M5616.7,2283.1c0-19.4,2.6-36.7,7.8-52c5.2-15.3,12.6-28.4,22.1-39.2c9.5-10.8,21-19.2,34.6-25
	c13.5-5.8,28.5-8.7,44.7-8.7c23.2,0,42.5,5.3,57.8,16c15.3,10.7,25.1,25.7,29.3,45h5.2c-0.4-6.6-0.8-13.2-1.2-19.7
	c-0.8-5.8-1.3-11.9-1.5-18.3c-0.2-6.4-0.3-12.1-0.3-17.1v-104.5h63.3v424h-60.4v-55.2h-5.2c-4.3,19.4-14,34.4-29.3,45
	c-15.3,10.6-34.6,16-57.8,16c-16.3,0-31.2-2.9-44.7-8.7c-13.6-5.8-25.1-14.1-34.6-25c-9.5-10.8-16.8-24.1-22.1-39.8
	c-5.2-15.7-7.8-33.2-7.8-52.6V2283.1z M5749.1,2433.5c20.1,0,36.2-6.4,48.2-19.2c12-12.8,18-29.8,18-51.1v-79
	c0-21.7-6.1-38.9-18.3-51.7c-12.2-12.8-28.2-19.2-47.9-19.2c-21.3,0-38,6.3-50.2,18.9c-12.2,12.6-18.3,29.9-18.3,52v78.4
	c0,21.7,6.1,38.9,18.3,51.7C5711,2427.1,5727.8,2433.5,5749.1,2433.5z"/>
<path class="st1" d="M6086.4,2489.3c-20.5,0-39-2.9-55.5-8.7c-16.5-5.8-30.5-14.1-42.1-25c-11.6-10.8-20.6-23.8-27-38.9
	s-9.6-32.1-9.6-51.1v-83.6c0-19,3.2-36.1,9.6-51.4c6.4-15.3,15.4-28.3,27-38.9c11.6-10.6,25.6-18.9,42.1-24.7
	c16.5-5.8,34.9-8.7,55.5-8.7c20.5,0,39,2.9,55.5,8.7c16.5,5.8,30.5,14,42.1,24.7c11.6,10.7,20.5,23.6,26.7,38.9
	c6.2,15.3,9.3,32.4,9.3,51.4v58.7h-203.8v22.6c0,22.8,6.2,40.7,18.6,53.4c12.4,12.8,29.6,19.2,51.7,19.2c16.3,0,30.3-2.5,42.1-7.5
	c11.8-5,20.4-12.4,25.8-22.1h63.3c-3.5,12.8-9.1,24.2-16.8,34.3c-7.8,10.1-17.3,18.8-28.7,26.1c-11.4,7.4-24.4,13-38.9,16.8
	C6118.6,2487.3,6103,2489.3,6086.4,2489.3z M6157.2,2294.1v-12.2c0-22.1-6.2-39.4-18.6-52c-12.4-12.6-29.8-18.9-52.3-18.9
	c-22.1,0-39.3,6.3-51.7,18.9c-12.4,12.6-18.6,29.9-18.6,52v12.2H6157.2z"/>
<path class="st2" d="M6249.1,2498h282.2v56.3h-282.2V2498z"/>
</svg>
