<svg xmlns="http://www.w3.org/2000/svg" width="128" height="128" viewBox="0 0 128 128"><title>fhg</title><rect x="36" y="40" width="56" height="56" fill="none" stroke="#06100e" stroke-miterlimit="10" stroke-width="2"/><rect x="48" y="48" width="32" height="40" fill="none" stroke="#06100e" stroke-miterlimit="10" stroke-width="2"/><path d="M44,40V28A20,20,0,0,1,64,8h0A20,20,0,0,1,84,28V40" fill="none" stroke="#00ffbc" stroke-miterlimit="10" stroke-width="2" stroke-dasharray="4"/><path d="M76,40V28A12,12,0,0,0,64,16h0A12,12,0,0,0,52,28V40" fill="none" stroke="#06100e" stroke-miterlimit="10" stroke-width="2"/><circle cx="64" cy="116" r="4" fill="none" stroke="#00ffbc" stroke-miterlimit="10" stroke-width="2"/><line x1="64" y1="96" x2="64" y2="112" fill="none" stroke="#00ffbc" stroke-miterlimit="10" stroke-width="2"/><circle cx="80" cy="116" r="4" fill="none" stroke="#06100e" stroke-miterlimit="10" stroke-width="2"/><line x1="80" y1="96" x2="80" y2="112" fill="none" stroke="#06100e" stroke-miterlimit="10" stroke-width="2"/><circle cx="104" cy="116" r="4" fill="none" stroke="#00ffbc" stroke-miterlimit="10" stroke-width="2"/><polyline points="104 112 104 96 92 84" fill="none" stroke="#00ffbc" stroke-miterlimit="10" stroke-width="2"/><circle cx="28" cy="12" r="4" fill="none" stroke="#00ffbc" stroke-miterlimit="10" stroke-width="2"/><polyline points="28 16 28 32 36 40" fill="none" stroke="#00ffbc" stroke-miterlimit="10" stroke-width="2"/><circle cx="100" cy="12" r="4" fill="none" stroke="#00ffbc" stroke-miterlimit="10" stroke-width="2"/><polyline points="100 16 100 32 92 40" fill="none" stroke="#00ffbc" stroke-miterlimit="10" stroke-width="2"/><circle cx="24" cy="116" r="4" fill="none" stroke="#00ffbc" stroke-miterlimit="10" stroke-width="2"/><polyline points="24 112 24 96 36 84" fill="none" stroke="#00ffbc" stroke-miterlimit="10" stroke-width="2"/><circle cx="48" cy="116" r="4" fill="none" stroke="#06100e" stroke-miterlimit="10" stroke-width="2"/><line x1="48" y1="96" x2="48" y2="112" fill="none" stroke="#06100e" stroke-miterlimit="10" stroke-width="2"/><path d="M72,64a8,8,0,1,0-12,6.92V80h8V70.92A8,8,0,0,0,72,64Z" fill="none" stroke="#00ffbc" stroke-miterlimit="10" stroke-width="2"/><circle cx="116" cy="56" r="4" fill="none" stroke="#00ffbc" stroke-miterlimit="10" stroke-width="2"/><polyline points="113.17 58.83 104 68 80 68" fill="none" stroke="#00ffbc" stroke-miterlimit="10" stroke-width="2"/><circle cx="104" cy="48" r="4" fill="none" stroke="#06100e" stroke-miterlimit="10" stroke-width="2"/><polyline points="101.21 50.79 92 60 80 60" fill="none" stroke="#06100e" stroke-miterlimit="10" stroke-width="2"/><circle cx="16" cy="88" r="4" fill="none" stroke="#06100e" stroke-miterlimit="10" stroke-width="2"/><polyline points="18.83 85.17 28 76 48 76" fill="none" stroke="#06100e" stroke-miterlimit="10" stroke-width="2"/><circle cx="112" cy="88" r="4" fill="none" stroke="#06100e" stroke-miterlimit="10" stroke-width="2"/><polyline points="109.17 85.17 100 76 80 76" fill="none" stroke="#06100e" stroke-miterlimit="10" stroke-width="2"/><circle cx="24" cy="48" r="4" fill="none" stroke="#06100e" stroke-miterlimit="10" stroke-width="2"/><polyline points="26.83 50.83 36 60 48 60" fill="none" stroke="#06100e" stroke-miterlimit="10" stroke-width="2"/><circle cx="12" cy="56" r="4" fill="none" stroke="#00ffbc" stroke-miterlimit="10" stroke-width="2"/><polyline points="14.83 58.83 24 68 48 68" fill="none" stroke="#00ffbc" stroke-miterlimit="10" stroke-width="2"/></svg>