<svg xmlns="http://www.w3.org/2000/svg" width="128" height="128" viewBox="0 0 128 128"><title>icons</title><circle cx="48" cy="32" r="12" fill="none" stroke="#06100e" stroke-miterlimit="10" stroke-width="2"/><path d="M73.62,24.54A18,18,0,0,1,95.88,40H96a16,16,0,0,1,0,32H32a16,16,0,0,1-8.52-29.55c.33-.21.67-.4,1-.59" fill="none" stroke="#06100e" stroke-miterlimit="10" stroke-width="2"/><polyline points="32 88 40 80 48 88" fill="none" stroke="#06100e" stroke-miterlimit="10" stroke-width="2"/><line x1="96" y1="60" x2="96" y2="52" fill="none" stroke="#06100e" stroke-miterlimit="10" stroke-width="2"/><line x1="100" y1="56" x2="92" y2="56" fill="none" stroke="#06100e" stroke-miterlimit="10" stroke-width="2"/><polyline points="12 112 12 100 40 100 40 80" fill="none" stroke="#06100e" stroke-miterlimit="10" stroke-width="2"/><circle cx="28" cy="116" r="4" fill="none" stroke="#06100e" stroke-miterlimit="10" stroke-width="2"/><circle cx="100" cy="116" r="4" fill="none" stroke="#06100e" stroke-miterlimit="10" stroke-width="2"/><line x1="28" y1="100" x2="28" y2="112" fill="none" stroke="#06100e" stroke-miterlimit="10" stroke-width="2"/><line x1="100" y1="100" x2="100" y2="112" fill="none" stroke="#06100e" stroke-miterlimit="10" stroke-width="2"/><circle cx="48" cy="32" r="4" fill="none" stroke="#00ffbc" stroke-miterlimit="10" stroke-width="2"/><path d="M44,56l-1.6-4.81a20,20,0,0,1-4-1.65L33.86,51.8,28.2,46.14l2.26-4.52a20,20,0,0,1-1.65-4L24,36V28l4.81-1.6a20,20,0,0,1,1.65-4L28.2,17.86l5.66-5.66,4.52,2.26a20,20,0,0,1,4-1.65L44,8h8l1.6,4.81a20,20,0,0,1,4,1.65l4.52-2.26,5.66,5.66-2.26,4.52a20,20,0,0,1,1.65,4L72,28v8l-4.81,1.6a20,20,0,0,1-1.65,4l2.26,4.52L62.14,51.8l-4.52-2.26a20,20,0,0,1-4,1.65L52,56Z" fill="none" stroke="#00ffbc" stroke-miterlimit="10" stroke-width="2"/><line x1="64" y1="80" x2="64" y2="120" fill="none" stroke="#00ffbc" stroke-miterlimit="10" stroke-width="2"/><polyline points="72 112 64 120 56 112" fill="none" stroke="#00ffbc" stroke-miterlimit="10" stroke-width="2"/><polyline points="80 88 88 80 96 88" fill="none" stroke="#00ffbc" stroke-miterlimit="10" stroke-width="2"/><path d="M88,56a8,8,0,1,1,8,8H40" fill="none" stroke="#00ffbc" stroke-miterlimit="10" stroke-width="2"/><polyline points="116 112 116 100 88 100 88 80" fill="none" stroke="#00ffbc" stroke-miterlimit="10" stroke-width="2"/><circle cx="12" cy="116" r="4" fill="none" stroke="#00ffbc" stroke-miterlimit="10" stroke-width="2"/><circle cx="116" cy="116" r="4" fill="none" stroke="#00ffbc" stroke-miterlimit="10" stroke-width="2"/></svg>