<svg xmlns="http://www.w3.org/2000/svg" width="128" height="128" viewBox="0 0 128 128"><title>icons</title><path d="M32,20H16a8,8,0,0,0-8,8V92a8,8,0,0,0,8,8h96a8,8,0,0,0,8-8V28a8,8,0,0,0-8-8H64" fill="none" stroke="#06100e" stroke-miterlimit="10" stroke-width="2"/><line x1="40" y1="112" x2="40" y2="100" fill="none" stroke="#06100e" stroke-miterlimit="10" stroke-width="2"/><line x1="88" y1="100" x2="88" y2="112" fill="none" stroke="#06100e" stroke-miterlimit="10" stroke-width="2"/><line x1="24" y1="120" x2="104" y2="120" fill="none" stroke="#06100e" stroke-miterlimit="10" stroke-width="2"/><rect x="88" y="32" width="24" height="8" fill="none" stroke="#06100e" stroke-miterlimit="10" stroke-width="2"/><line x1="112" y1="48" x2="104" y2="48" fill="none" stroke="#06100e" stroke-miterlimit="10" stroke-width="2"/><line x1="100" y1="48" x2="88" y2="48" fill="none" stroke="#06100e" stroke-miterlimit="10" stroke-width="2"/><line x1="112" y1="56" x2="88" y2="56" fill="none" stroke="#06100e" stroke-miterlimit="10" stroke-width="2"/><line x1="32" y1="60" x2="8" y2="72" fill="none" stroke="#06100e" stroke-miterlimit="10" stroke-width="2"/><polyline points="88 84 88 72 64 60" fill="none" stroke="#06100e" stroke-miterlimit="10" stroke-width="2"/><line x1="120" y1="84" x2="8" y2="84" fill="none" stroke="#00ffbc" stroke-miterlimit="10" stroke-width="2"/><line x1="108" y1="92" x2="104" y2="92" fill="none" stroke="#00ffbc" stroke-miterlimit="10" stroke-width="2"/><path d="M96,120h0a8,8,0,0,0-8-8H40a8,8,0,0,0-8,8h0" fill="none" stroke="#00ffbc" stroke-miterlimit="10" stroke-width="2"/><line x1="48" y1="28" x2="48" y2="32" fill="none" stroke="#00ffbc" stroke-miterlimit="10" stroke-width="2"/><polyline points="32 36 24 40 24 56 48 68 72 56 72 40 64 36" fill="none" stroke="#00ffbc" stroke-miterlimit="10" stroke-width="2"/><polygon points="48 12 32 20 32 36 48 44 64 36 64 20 48 12" fill="none" stroke="#00ffbc" stroke-miterlimit="10" stroke-width="2"/><polyline points="72 40 48 52 24 40" fill="none" stroke="#00ffbc" stroke-miterlimit="10" stroke-width="2"/><polyline points="64 20 48 28 32 20" fill="none" stroke="#00ffbc" stroke-miterlimit="10" stroke-width="2"/><line x1="48" y1="12" x2="48" y2="8" fill="none" stroke="#00ffbc" stroke-miterlimit="10" stroke-width="2"/><line x1="48" y1="44" x2="48" y2="36" fill="none" stroke="#00ffbc" stroke-miterlimit="10" stroke-width="2"/><line x1="48" y1="52" x2="48" y2="60" fill="none" stroke="#00ffbc" stroke-miterlimit="10" stroke-width="2"/><line x1="24" y1="56" x2="16" y2="60" fill="none" stroke="#00ffbc" stroke-miterlimit="10" stroke-width="2"/><line x1="72" y1="56" x2="80" y2="60" fill="none" stroke="#00ffbc" stroke-miterlimit="10" stroke-width="2"/><line x1="108" y1="76" x2="108" y2="68" fill="none" stroke="#00ffbc" stroke-miterlimit="10" stroke-width="2"/><line x1="112" y1="72" x2="104" y2="72" fill="none" stroke="#00ffbc" stroke-miterlimit="10" stroke-width="2"/></svg>