<svg xmlns="http://www.w3.org/2000/svg" width="128" height="128" viewBox="0 0 128 128"><title>icons</title><path d="M76,87.92c0-12,9.67-22.8,14.67-30.32A31.87,31.87,0,0,0,96,38.05C95,22.11,84,8.08,64,8" fill="none" stroke="#06100e" stroke-miterlimit="10" stroke-width="2" stroke-dasharray="4"/><path d="M52,87.92c0-12-9.38-22.54-14.48-30a31.84,31.84,0,0,1-5.52-18C32,21.5,44,7.92,64,8V88" fill="none" stroke="#06100e" stroke-miterlimit="10" stroke-width="2"/><path d="M64,52a12,12,0,0,1,0-24" fill="none" stroke="#06100e" stroke-miterlimit="10" stroke-width="2"/><polyline points="64 32 76 32 76 48 64 48" fill="none" stroke="#06100e" stroke-miterlimit="10" stroke-width="2"/><circle cx="72" cy="20" r="4" fill="none" stroke="#06100e" stroke-miterlimit="10" stroke-width="2"/><circle cx="88" cy="44" r="4" fill="none" stroke="#06100e" stroke-miterlimit="10" stroke-width="2"/><line x1="72" y1="24" x2="72" y2="32" fill="none" stroke="#06100e" stroke-miterlimit="10" stroke-width="2"/><line x1="84" y1="44" x2="76" y2="44" fill="none" stroke="#06100e" stroke-miterlimit="10" stroke-width="2"/><line x1="12" y1="16" x2="12" y2="8" fill="none" stroke="#06100e" stroke-miterlimit="10" stroke-width="2"/><line x1="16" y1="12" x2="8" y2="12" fill="none" stroke="#06100e" stroke-miterlimit="10" stroke-width="2"/><polyline points="120 120 120 96 8 96 8 120" fill="none" stroke="#06100e" stroke-miterlimit="10" stroke-width="2"/><path d="M72.75,112a8,8,0,0,1-16,0" fill="none" stroke="#00ffbc" stroke-miterlimit="10" stroke-width="2"/><path d="M64,44a4,4,0,0,1,0-8" fill="none" stroke="#00ffbc" stroke-miterlimit="10" stroke-width="2"/><path d="M64,16H60l-1.6,4.81a20,20,0,0,0-4,1.65L49.86,20.2,44.2,25.86l2.26,4.52a20,20,0,0,0-1.65,4L40,36v8l4.81,1.6a20,20,0,0,0,1.65,4L44.2,54.14l5.66,5.66,4.52-2.26a20,20,0,0,0,4,1.65L60,64h4" fill="none" stroke="#00ffbc" stroke-miterlimit="10" stroke-width="2"/><circle cx="76" cy="60" r="4" fill="none" stroke="#00ffbc" stroke-miterlimit="10" stroke-width="2"/><circle cx="84" cy="28" r="4" fill="none" stroke="#00ffbc" stroke-miterlimit="10" stroke-width="2"/><polyline points="76 36 84 36 84 32" fill="none" stroke="#00ffbc" stroke-miterlimit="10" stroke-width="2"/><polyline points="76 56 76 52 68 52 68 48" fill="none" stroke="#00ffbc" stroke-miterlimit="10" stroke-width="2"/><rect x="48" y="88" width="32" height="24" fill="none" stroke="#00ffbc" stroke-miterlimit="10" stroke-width="2"/><line x1="80" y1="104" x2="48" y2="104" fill="none" stroke="#00ffbc" stroke-miterlimit="10" stroke-width="2"/><line x1="108" y1="24" x2="108" y2="16" fill="none" stroke="#00ffbc" stroke-miterlimit="10" stroke-width="2"/><line x1="112" y1="20" x2="104" y2="20" fill="none" stroke="#00ffbc" stroke-miterlimit="10" stroke-width="2"/><line x1="20" y1="72" x2="20" y2="64" fill="none" stroke="#00ffbc" stroke-miterlimit="10" stroke-width="2"/><line x1="24" y1="68" x2="16" y2="68" fill="none" stroke="#00ffbc" stroke-miterlimit="10" stroke-width="2"/></svg>