<svg xmlns="http://www.w3.org/2000/svg" width="128" height="128" viewBox="0 0 128 128"><polyline points="36 8 64 36 64 92 8 92 8 36 36 8 92 8 120 36 120 92 112 92" fill="none" stroke="#06100e" stroke-miterlimit="10" stroke-width="2"/><line x1="8" y1="36" x2="120" y2="36" fill="none" stroke="#06100e" stroke-miterlimit="10" stroke-width="2"/><polyline points="40 92 40 60 56 60 56 92" fill="none" stroke="#06100e" stroke-miterlimit="10" stroke-width="2"/><rect x="72" y="48" width="16" height="24" fill="none" stroke="#06100e" stroke-miterlimit="10" stroke-width="2"/><rect x="96" y="48" width="16" height="24" fill="none" stroke="#06100e" stroke-miterlimit="10" stroke-width="2"/><rect x="16" y="48" width="16" height="24" fill="none" stroke="#06100e" stroke-miterlimit="10" stroke-width="2"/><path d="M56,92c0,12,12,12,12,28" fill="none" stroke="#06100e" stroke-miterlimit="10" stroke-width="2" stroke-dasharray="4"/><path d="M40,92c0,12-12,12-12,28" fill="none" stroke="#06100e" stroke-miterlimit="10" stroke-width="2" stroke-dasharray="4"/><line x1="8" y1="120" x2="120" y2="120" fill="none" stroke="#06100e" stroke-miterlimit="10" stroke-width="2"/><path d="M80,80h24a8,8,0,0,1,8,8v16H72V88a8,8,0,0,1,8-8h0a8,8,0,0,1,8,8v16" fill="none" stroke="#06100e" stroke-miterlimit="10" stroke-width="2"/><line x1="92" y1="104" x2="92" y2="120" fill="none" stroke="#06100e" stroke-miterlimit="10" stroke-width="2"/><line x1="96" y1="104" x2="96" y2="120" fill="none" stroke="#06100e" stroke-miterlimit="10" stroke-width="2"/><line x1="72" y1="92" x2="64" y2="92" fill="none" stroke="#06100e" stroke-miterlimit="10" stroke-width="2"/><line x1="80" y1="48" x2="80" y2="72" fill="none" stroke="#00ffbc" stroke-miterlimit="10" stroke-width="2"/><line x1="72" y1="56" x2="88" y2="56" fill="none" stroke="#00ffbc" stroke-miterlimit="10" stroke-width="2"/><line x1="24" y1="48" x2="24" y2="72" fill="none" stroke="#00ffbc" stroke-miterlimit="10" stroke-width="2"/><line x1="16" y1="56" x2="32" y2="56" fill="none" stroke="#00ffbc" stroke-miterlimit="10" stroke-width="2"/><line x1="104" y1="48" x2="104" y2="72" fill="none" stroke="#00ffbc" stroke-miterlimit="10" stroke-width="2"/><line x1="96" y1="56" x2="112" y2="56" fill="none" stroke="#00ffbc" stroke-miterlimit="10" stroke-width="2"/><line x1="16" y1="28" x2="112" y2="28" fill="none" stroke="#00ffbc" stroke-miterlimit="10" stroke-width="2" stroke-dasharray="4"/><line x1="24" y1="20" x2="104" y2="20" fill="none" stroke="#00ffbc" stroke-miterlimit="10" stroke-width="2" stroke-dasharray="4"/><line x1="56" y1="76" x2="52" y2="76" fill="none" stroke="#00ffbc" stroke-miterlimit="10" stroke-width="2"/><polyline points="104 88 104 96 108 96 108 88 96 88" fill="none" stroke="#00ffbc" stroke-miterlimit="10" stroke-width="2"/><line x1="84" y1="92" x2="76" y2="92" fill="none" stroke="#00ffbc" stroke-miterlimit="10" stroke-width="2"/></svg>