<svg xmlns="http://www.w3.org/2000/svg" width="128" height="128" viewBox="0 0 128 128"><circle cx="32" cy="96" r="12" fill="none" stroke="#06100e" stroke-miterlimit="10" stroke-width="2"/><path d="M18,68,8,56h4a44,44,0,1,1,44,44" fill="none" stroke="#06100e" stroke-miterlimit="10" stroke-width="2"/><line x1="84" y1="112" x2="56" y2="112" fill="none" stroke="#06100e" stroke-miterlimit="10" stroke-width="2" stroke-dasharray="4"/><polyline points="48 78.06 48 40 64 40 64 80" fill="none" stroke="#06100e" stroke-miterlimit="10" stroke-width="2"/><line x1="48" y1="56" x2="64" y2="56" fill="none" stroke="#06100e" stroke-miterlimit="10" stroke-width="2"/><line x1="64" y1="72" x2="48" y2="72" fill="none" stroke="#06100e" stroke-miterlimit="10" stroke-width="2"/><circle cx="32" cy="96" r="4" fill="none" stroke="#00ffbc" stroke-miterlimit="10" stroke-width="2"/><path d="M28,120l-1.6-4.81a20,20,0,0,1-4-1.65l-4.52,2.26-5.66-5.66,2.26-4.52a20,20,0,0,1-1.65-4L8,100V92l4.81-1.6a20,20,0,0,1,1.65-4L12.2,81.86l5.66-5.66,4.52,2.26a20,20,0,0,1,4-1.65L28,72h8l1.6,4.81a20,20,0,0,1,4,1.65l4.52-2.26,5.66,5.66-2.26,4.52a20,20,0,0,1,1.65,4L56,92v8l-4.81,1.6a20,20,0,0,1-1.65,4l2.26,4.52-5.66,5.66-4.52-2.26a20,20,0,0,1-4,1.65L36,120Z" fill="none" stroke="#00ffbc" stroke-miterlimit="10" stroke-width="2"/><polyline points="56 100 108 100 108 96 120 106 108 116 108 112 88 112" fill="none" stroke="#00ffbc" stroke-miterlimit="10" stroke-width="2"/><path d="M40,68V40a8,8,0,0,1,8-8H64a8,8,0,0,1,8,8V72a8,8,0,0,1-8,8H49.94" fill="none" stroke="#00ffbc" stroke-miterlimit="10" stroke-width="2"/><line x1="64" y1="48" x2="60" y2="48" fill="none" stroke="#00ffbc" stroke-miterlimit="10" stroke-width="2"/><line x1="52" y1="48" x2="48" y2="48" fill="none" stroke="#00ffbc" stroke-miterlimit="10" stroke-width="2"/><line x1="64" y1="64" x2="60" y2="64" fill="none" stroke="#00ffbc" stroke-miterlimit="10" stroke-width="2"/><line x1="52" y1="64" x2="48" y2="64" fill="none" stroke="#00ffbc" stroke-miterlimit="10" stroke-width="2"/><path d="M98.34,8a64,64,0,0,1,13.1,80" fill="none" stroke="#00ffbc" stroke-miterlimit="10" stroke-width="2" stroke-dasharray="4"/><path d="M56,88A32,32,0,1,0,24,56h4L18,68l-2-2.4" fill="none" stroke="#00ffbc" stroke-miterlimit="10" stroke-width="2"/></svg>